<?xml version="1.0" standalone="no"?>
<!DOCTYPE svg PUBLIC "-//W3C//DTD SVG 20010904//EN"
 "http://www.w3.org/TR/2001/REC-SVG-20010904/DTD/svg10.dtd">
<svg version="1.0" xmlns="http://www.w3.org/2000/svg"
 width="405.000000pt" height="124.000000pt" viewBox="0 0 405.000000 124.000000"
 preserveAspectRatio="xMidYMid meet">

<g transform="translate(0.000000,124.000000) scale(0.100000,-0.100000)"
fill="#000000" stroke="none">
<path d="M621 994 c-20 -26 -21 -38 -21 -379 0 -332 1 -354 19 -376 l19 -24
1387 0 1387 0 19 24 c18 21 19 42 19 265 0 132 -3 251 -6 264 -7 23 -7 23
-169 20 -90 -2 -161 0 -158 5 2 4 -5 7 -16 7 -11 0 -23 -5 -27 -12 -5 -8 -2
-9 9 -5 21 8 21 3 1 -17 -17 -18 -69 -22 -79 -6 -4 6 -11 7 -17 4 -6 -4 -8 -2
-4 4 3 6 2 13 -4 17 -5 3 -10 -3 -10 -14 0 -25 -25 -28 -47 -5 -13 13 -14 17
-3 24 14 8 5 30 -12 30 -6 0 -8 -15 -6 -35 3 -29 1 -35 -14 -35 -14 0 -18 8
-18 33 0 22 -3 28 -9 18 -7 -11 -11 -10 -20 5 -9 17 -10 17 -11 2 0 -9 5 -20
10 -23 22 -13 10 -36 -17 -33 -20 2 -29 11 -37 36 -7 18 -15 30 -19 26 -11
-11 -8 -36 3 -29 6 3 10 -2 10 -11 0 -16 -1 -16 -19 0 -15 13 -20 14 -24 4 -3
-7 -6 -3 -6 10 -1 35 -31 28 -31 -8 0 -22 -5 -30 -18 -30 -15 0 -17 6 -14 35
3 27 1 35 -12 35 -12 0 -16 -9 -16 -35 0 -28 -4 -35 -19 -35 -21 0 -35 38 -24
66 4 11 2 15 -4 11 -6 -4 -13 -20 -16 -37 -5 -21 -14 -31 -32 -36 -34 -9 -75
13 -75 40 -1 20 -2 20 -14 4 -7 -10 -16 -15 -19 -11 -4 3 -7 -2 -7 -13 0 -16
-2 -17 -10 -4 -9 13 -12 13 -24 -2 -19 -25 -72 -23 -88 2 -15 24 -38 26 -38 4
0 -8 5 -12 10 -9 6 3 10 1 10 -4 0 -15 -50 -14 -51 2 -1 6 0 19 1 27 1 10 -7
7 -27 -10 -41 -36 -74 -54 -67 -36 3 9 -1 13 -13 13 -14 -2 -19 7 -24 38 -3
22 -7 31 -8 20 -1 -17 -3 -18 -11 -5 -7 11 -10 8 -10 -16 0 -28 -4 -32 -30
-36 -41 -6 -69 14 -54 39 6 10 21 19 33 21 29 5 27 22 -4 22 -32 0 -33 18 0
22 25 3 24 4 -26 81 l-52 77 -653 0 -653 0 -20 -26z m563 -111 c-4 -16 -13
-38 -21 -51 -16 -26 -74 -55 -86 -43 -25 25 49 121 94 121 16 0 18 -5 13 -27z
m776 -48 c0 -43 -4 -75 -10 -75 -6 0 -10 32 -10 75 0 43 4 75 10 75 6 0 10
-32 10 -75z m-360 0 c23 -68 18 -109 -7 -61 -14 28 -53 36 -53 12 0 -16 -18
-31 -26 -23 -5 5 10 70 26 113 16 42 37 28 60 -41z m298 54 c-2 -6 -8 -10 -13
-10 -5 0 -11 4 -13 10 -2 6 4 11 13 11 9 0 15 -5 13 -11z m-221 -61 l10 -33
13 33 c6 17 18 32 26 32 11 0 10 -9 -5 -47 -25 -64 -45 -66 -65 -7 -19 57 -19
54 -2 54 7 0 18 -15 23 -32z m151 20 c7 -7 12 -29 12 -49 0 -33 -3 -37 -32
-43 -25 -5 -36 -2 -45 10 -16 22 0 54 27 54 11 0 20 5 20 10 0 6 -11 10 -25
10 -14 0 -25 5 -25 10 0 14 54 12 68 -2z m72 -38 c0 -38 -4 -50 -15 -50 -11 0
-15 12 -15 50 0 38 4 50 15 50 11 0 15 -12 15 -50z m-820 -42 c19 1 56 4 81 7
33 5 55 2 77 -9 44 -23 47 -33 18 -67 -40 -47 -36 -107 9 -157 l34 -39 -20
-39 c-47 -88 -81 -106 -159 -83 -30 9 -47 9 -82 -3 -53 -18 -77 -11 -111 34
-44 59 -68 117 -73 181 -5 52 -2 69 18 107 30 58 77 84 133 74 22 -4 56 -6 75
-6z m601 -240 c23 -73 44 -139 47 -146 3 -10 -3 -13 -23 -10 -21 2 -30 11 -39
38 -10 33 -14 35 -58 38 l-47 3 -12 -40 c-10 -33 -17 -41 -36 -41 -12 0 -23 3
-23 7 0 5 64 208 85 271 2 6 18 12 34 12 30 0 30 -2 72 -132z m779 123 c0 -31
-13 -41 -49 -35 -43 7 -76 -13 -65 -39 3 -10 28 -29 55 -42 75 -38 92 -95 43
-140 -21 -20 -38 -25 -78 -25 -57 0 -82 11 -73 33 4 11 17 13 54 10 87 -9 99
46 18 85 -56 27 -79 61 -70 102 4 16 16 37 28 45 24 16 137 21 137 6z m110
-46 c0 -20 5 -25 25 -25 18 0 25 -5 25 -20 0 -15 -7 -20 -25 -20 -25 0 -26 -1
-23 -62 3 -57 5 -63 26 -66 14 -2 22 -10 22 -23 0 -16 -7 -19 -40 -19 -50 0
-60 17 -60 104 0 52 -3 66 -15 66 -8 0 -15 9 -15 20 0 11 7 20 15 20 8 0 15 9
15 19 0 19 12 29 38 30 6 1 12 -10 12 -24z m428 -50 c-1 -10 -12 -19 -23 -21
-32 -5 -45 -34 -45 -101 0 -61 -1 -63 -25 -63 l-25 0 0 105 0 105 25 0 c14 0
25 -4 25 -9 0 -6 12 -3 27 4 30 16 47 7 41 -20z m177 5 c9 -10 19 -37 22 -59
l6 -41 -72 0 c-39 0 -71 -3 -71 -7 1 -24 24 -38 72 -43 38 -3 53 -9 53 -20 0
-11 -13 -16 -44 -18 -64 -5 -89 4 -111 41 -25 40 -25 72 -2 117 27 56 109 72
147 30z m-1365 3 c0 -15 1 -15 18 0 23 21 71 22 99 2 33 -23 48 -79 34 -126
-15 -50 -49 -72 -101 -67 l-40 4 0 -43 c0 -39 -2 -43 -25 -43 l-25 0 0 145 c0
138 1 145 20 145 12 0 20 -7 20 -17z m240 7 c0 -7 6 -7 19 0 64 34 131 -11
131 -87 0 -49 -21 -97 -45 -107 -27 -10 -80 -7 -93 6 -9 9 -12 0 -12 -40 0
-49 -2 -52 -25 -52 l-25 0 0 145 0 145 25 0 c14 0 25 -5 25 -10z m757 -5 c33
-23 48 -83 33 -129 -15 -46 -44 -66 -97 -66 -30 0 -50 7 -70 24 -25 21 -28 31
-28 81 0 50 3 60 28 81 33 28 100 33 134 9z"/>
<path d="M1557 845 c-8 -20 -4 -29 11 -24 5 2 6 13 2 23 -6 19 -7 19 -13 1z"/>
<path d="M1782 789 c2 -6 8 -10 13 -10 5 0 11 4 13 10 2 6 -4 11 -13 11 -9 0
-15 -5 -13 -11z"/>
<path d="M1588 547 l-15 -57 34 0 c33 0 35 2 29 26 -4 15 -13 40 -19 57 l-13
30 -16 -56z"/>
<path d="M3092 543 c-7 -2 -17 -13 -22 -24 -10 -17 -7 -19 35 -19 48 0 55 9
29 34 -16 17 -21 18 -42 9z"/>
<path d="M1832 528 c-7 -7 -12 -30 -12 -53 0 -46 13 -65 46 -65 29 0 48 25 48
65 0 18 -6 40 -13 49 -16 19 -52 21 -69 4z"/>
<path d="M2072 532 c-18 -12 -26 -75 -13 -101 15 -28 66 -29 81 -2 14 27 13
84 -2 99 -14 14 -47 16 -66 4z"/>
<path d="M2702 515 c-15 -32 -15 -48 -1 -79 14 -30 41 -38 68 -19 16 10 21 25
21 57 0 49 -13 66 -50 66 -19 0 -30 -8 -38 -25z"/>
<path d="M3081 844 c0 -11 3 -14 6 -6 3 7 2 16 -1 19 -3 4 -6 -2 -5 -13z"/>
<path d="M2526 821 c-4 -6 -2 -11 5 -11 8 0 8 -4 -1 -15 -7 -9 -8 -15 -2 -15
14 0 22 24 12 39 -5 9 -10 10 -14 2z"/>
<path d="M2171 812 c-1 -7 -5 -11 -10 -7 -5 3 -13 0 -17 -6 -4 -8 -3 -9 4 -5
7 4 12 2 12 -5 0 -10 3 -10 11 -2 6 6 9 17 6 25 -4 10 -6 10 -6 0z"/>
<path d="M2020 784 c0 -17 22 -14 28 4 2 7 -3 12 -12 12 -9 0 -16 -7 -16 -16z"/>
<path d="M2330 790 c0 -13 11 -13 30 0 12 8 11 10 -7 10 -13 0 -23 -4 -23 -10z"/>
<path d="M3020 788 c0 -11 28 -10 35 1 3 6 -4 9 -15 8 -11 -1 -20 -5 -20 -9z"/>
</g>
</svg>
