<?xml version="1.0" standalone="no"?>
<!DOCTYPE svg PUBLIC "-//W3C//DTD SVG 20010904//EN"
 "http://www.w3.org/TR/2001/REC-SVG-20010904/DTD/svg10.dtd">
<svg version="1.0" xmlns="http://www.w3.org/2000/svg"
 width="412.000000pt" height="122.000000pt" viewBox="0 0 412.000000 122.000000"
 preserveAspectRatio="xMidYMid meet">

<g transform="translate(0.000000,122.000000) scale(0.100000,-0.100000)"
fill="#000000" stroke="none">
<path d="M101 1182 c-19 -9 -44 -30 -55 -45 -20 -28 -21 -41 -24 -515 -2 -449
-1 -490 15 -521 10 -19 31 -44 46 -55 l28 -21 1949 0 1949 0 28 21 c15 11 36
36 46 55 16 31 17 72 15 521 -3 474 -4 487 -24 515 -11 15 -36 36 -55 45 -32
17 -146 18 -1959 18 -1813 0 -1927 -1 -1959 -18z m1296 -177 c30 -13 34 -17
23 -30 -9 -11 -16 -13 -24 -5 -19 19 -74 12 -90 -12 -33 -47 -7 -108 46 -108
30 0 68 23 68 42 0 4 -16 8 -36 8 -54 0 -37 24 19 28 47 3 47 3 47 -28 0 -77
-102 -109 -161 -51 -49 49 -30 135 35 161 29 12 32 12 73 -5z m842 -14 c74
-52 34 -171 -58 -171 -54 0 -90 32 -98 86 -4 33 -1 45 21 71 38 46 84 50 135
14z m-649 4 c0 -11 -11 -15 -40 -15 -36 0 -40 -2 -40 -25 0 -22 4 -25 35 -25
24 0 35 -5 35 -15 0 -10 -11 -15 -35 -15 -31 0 -35 -3 -35 -25 0 -22 4 -25 40
-25 29 0 40 -4 40 -15 0 -12 -13 -15 -55 -15 l-55 0 0 95 0 95 55 0 c42 0 55
-3 55 -15z m150 0 c0 -9 -9 -15 -25 -15 -25 0 -25 -1 -25 -80 0 -64 -3 -80
-15 -80 -12 0 -15 16 -15 80 0 79 0 80 -25 80 -16 0 -25 6 -25 15 0 12 14 15
65 15 51 0 65 -3 65 -15z m120 -80 c0 -78 -3 -95 -15 -95 -12 0 -15 17 -15 95
0 78 3 95 15 95 12 0 15 -17 15 -95z m150 80 c0 -9 -9 -15 -25 -15 -25 0 -25
-1 -25 -80 0 -64 -3 -80 -15 -80 -12 0 -15 16 -15 80 0 79 0 80 -25 80 -16 0
-25 6 -25 15 0 12 14 15 65 15 51 0 65 -3 65 -15z m367 -47 l38 -62 3 62 c2
46 7 62 17 62 12 0 15 -19 15 -95 0 -119 -11 -122 -74 -22 l-46 72 0 -72 c0
-58 -3 -73 -15 -73 -12 0 -15 17 -15 95 0 87 2 95 19 95 13 0 32 -20 58 -62z
m-1679 -110 c246 -141 287 -167 299 -195 24 -57 1 -89 -104 -149 l-91 -51
-247 247 c-225 225 -246 249 -236 268 14 27 39 41 71 42 13 0 148 -71 308
-162z m849 -159 c45 -22 53 -38 29 -58 -11 -10 -21 -9 -45 3 -16 9 -53 16 -80
16 -42 0 -56 -5 -86 -31 -68 -60 -68 -158 0 -218 30 -26 44 -31 88 -31 64 0
110 26 125 69 l11 31 -65 0 -64 0 0 30 0 30 89 0 c50 0 93 -5 96 -10 11 -18
-7 -100 -29 -133 -46 -69 -166 -98 -244 -58 -103 53 -147 162 -103 256 50 109
173 155 278 104z m1033 -179 l0 -190 -30 0 -30 0 0 190 0 190 30 0 30 0 0
-190z m580 175 c42 -22 70 -63 70 -102 0 -77 -55 -123 -149 -123 l-51 0 0 -70
0 -70 -30 0 -30 0 0 190 0 190 80 0 c52 0 91 -5 110 -15z m160 -175 l0 -190
-30 0 -30 0 0 190 0 190 30 0 30 0 0 -190z m-1443 29 c93 -87 42 -229 -82
-229 -134 0 -178 162 -65 238 44 30 109 26 147 -9z m258 17 c70 -30 96 -122
52 -187 -31 -46 -62 -61 -120 -56 -68 6 -108 46 -114 114 -9 104 84 170 182
129z m273 -2 c12 -8 22 -10 22 -5 0 6 11 11 25 11 l25 0 0 -142 c0 -123 -3
-147 -19 -174 -38 -63 -135 -69 -192 -12 l-31 31 27 15 c25 12 28 12 42 -7 10
-15 25 -21 52 -21 43 0 56 11 67 54 6 26 5 28 -12 21 -69 -30 -137 -5 -168 60
-22 46 -15 93 21 136 42 49 99 63 141 33z m379 -4 c18 -10 39 -32 47 -49 l16
-29 -83 -35 c-86 -36 -101 -55 -54 -71 22 -8 35 -6 62 8 28 16 37 17 50 6 22
-18 19 -26 -19 -49 -39 -25 -95 -27 -136 -6 -83 43 -79 188 4 229 42 21 75 20
113 -4z m733 5 c45 -23 60 -62 60 -155 l0 -80 -30 0 c-16 0 -30 5 -30 11 0 5
-10 3 -22 -5 -36 -26 -85 -20 -119 13 -65 66 -6 150 98 138 50 -5 54 9 10 31
-23 11 -32 11 -58 -2 -36 -18 -72 -6 -62 19 15 41 101 57 153 30z m154 -72
c17 -40 33 -73 37 -73 3 0 19 34 35 75 27 72 30 75 61 75 27 0 31 -3 25 -18
-4 -10 -38 -91 -77 -180 -66 -153 -72 -162 -97 -162 -34 0 -34 4 -2 73 l25 56
-37 83 c-20 46 -43 98 -51 116 l-14 33 33 -3 c31 -3 35 -8 62 -75z"/>
<path d="M2133 968 c-48 -60 -3 -133 71 -114 33 8 51 59 33 95 -10 21 -20 27
-53 29 -25 2 -45 -2 -51 -10z"/>
<path d="M3030 567 l0 -63 61 6 c64 6 79 17 79 61 0 40 -29 59 -88 59 l-52 0
0 -63z"/>
<path d="M1748 480 c-25 -26 -29 -36 -24 -63 11 -58 67 -84 113 -52 44 31 37
111 -13 134 -36 16 -42 14 -76 -19z"/>
<path d="M2053 500 c-49 -20 -59 -96 -17 -129 35 -27 59 -26 89 4 58 57 1 154
-72 125z"/>
<path d="M2334 498 c-46 -22 -56 -86 -19 -123 32 -33 68 -32 94 1 50 64 -7
155 -75 122z"/>
<path d="M2707 503 c-18 -5 -54 -63 -39 -63 5 0 33 10 62 22 47 20 51 23 34
35 -18 13 -26 14 -57 6z"/>
<path d="M3419 404 c-17 -21 0 -48 32 -52 28 -3 75 39 64 57 -10 17 -81 13
-96 -5z"/>
</g>
</svg>
