<?xml version="1.0" standalone="no"?>
<!DOCTYPE svg PUBLIC "-//W3C//DTD SVG 20010904//EN"
 "http://www.w3.org/TR/2001/REC-SVG-20010904/DTD/svg10.dtd">
<svg version="1.0" xmlns="http://www.w3.org/2000/svg"
 width="305.000000pt" height="165.000000pt" viewBox="0 0 305.000000 165.000000"
 preserveAspectRatio="xMidYMid meet">

<g transform="translate(0.000000,165.000000) scale(0.100000,-0.100000)"
fill="#000000" stroke="none">
<path d="M370 825 l0 -295 1155 0 1155 0 0 295 0 295 -1155 0 -1155 0 0 -295z
m317 207 c3 -14 11 -18 29 -14 26 5 39 -14 31 -45 -3 -15 -6 -13 -15 10 -14
34 -32 35 -32 3 0 -14 -4 -28 -10 -31 -6 -4 -10 10 -10 34 0 45 -20 58 -63 42
-25 -10 -31 -22 -40 -81 -3 -14 -5 -4 -6 22 -1 38 3 50 21 62 32 23 89 21 95
-2z m763 -77 c0 -37 -4 -65 -10 -65 -6 0 -10 28 -10 65 0 37 4 65 10 65 6 0
10 -28 10 -65z m280 2 l0 -64 -31 1 c-41 1 -57 25 -41 61 10 22 18 26 37 22
21 -3 25 0 25 19 0 13 2 24 5 24 3 0 5 -29 5 -63z m99 47 c-10 -13 -10 -17 2
-26 11 -7 11 -11 2 -15 -7 -2 -13 -20 -13 -39 0 -48 -17 -42 -23 9 -4 43 13
87 34 87 8 0 7 -6 -2 -16z m-1166 -11 c-7 -3 -13 -16 -13 -29 0 -13 -5 -24
-11 -24 -7 0 -9 10 -4 27 7 28 25 47 35 36 3 -3 -1 -8 -7 -10z m417 2 c32 -39
0 -105 -52 -105 -28 0 -28 1 -28 60 l0 60 34 0 c18 0 39 -7 46 -15z m100 -29
c28 -35 -11 -93 -47 -70 -36 22 -23 84 17 84 10 0 23 -7 30 -14z m46 -18 l7
-33 14 33 c7 17 15 32 18 32 2 0 8 -15 13 -32 9 -33 11 -32 26 16 13 38 17 7
5 -33 -15 -49 -26 -52 -37 -8 l-8 32 -12 -32 c-13 -39 -20 -41 -31 -10 -19 50
-22 67 -12 67 5 0 13 -15 17 -32z m176 20 c11 -18 10 -78 -2 -78 -5 0 -10 15
-10 34 0 60 -34 53 -43 -9 -3 -23 -4 -19 -6 15 -1 43 1 46 26 48 15 1 30 -4
35 -10z m138 -2 c28 -35 -11 -93 -47 -70 -36 22 -23 84 17 84 10 0 23 -7 30
-14z m88 -3 c4 -10 8 -29 8 -42 -1 -20 -7 -25 -33 -28 -29 -4 -33 -1 -33 21 0
17 6 26 20 28 26 4 22 24 -3 21 -10 -2 -15 2 -12 7 10 16 44 11 53 -7z m272 6
c0 -5 -7 -9 -15 -9 -10 0 -15 -11 -15 -35 0 -19 -4 -35 -10 -35 -5 0 -10 19
-10 43 0 38 2 42 25 43 14 1 25 -2 25 -7z m81 -10 c17 -33 -4 -71 -38 -67 -36
4 -50 29 -35 62 15 33 56 35 73 5z m147 -26 c2 -24 -1 -43 -7 -43 -5 0 -11 16
-13 35 -2 20 -7 35 -13 35 -5 0 -11 -15 -13 -35 -4 -45 -22 -46 -22 -1 0 60
-34 53 -43 -9 -3 -22 -4 -18 -6 16 l-1 45 58 0 57 -1 3 -42z m-1283 17 l25
-10 -2 -162 -3 -162 -32 -10 c-31 -8 -91 0 -305 46 l-48 10 0 117 0 118 148
31 c168 34 181 36 217 22z m685 -213 l0 -94 -45 -1 c-37 -2 -47 2 -61 23 -33
50 7 114 62 101 22 -6 24 -3 24 29 0 19 5 35 10 35 6 0 10 -38 10 -93z m-506
29 c9 -30 16 -59 16 -65 0 -6 4 -11 9 -11 4 0 16 29 26 65 10 38 22 64 29 62
6 -2 19 -32 28 -67 9 -34 19 -64 21 -67 3 -2 12 28 22 67 16 64 35 94 35 54 0
-35 -44 -164 -56 -164 -7 0 -20 26 -29 58 -9 31 -17 62 -19 67 -2 6 -12 -19
-23 -55 -12 -40 -25 -65 -33 -65 -13 0 -60 128 -60 163 0 31 20 7 34 -42z
m227 41 c-1 -12 -15 -9 -19 4 -3 6 1 10 8 8 6 -3 11 -8 11 -12z m876 -4 c3 -7
-8 -11 -29 -10 -48 3 -50 -31 -3 -61 59 -37 42 -97 -26 -90 -46 4 -47 23 -2
23 51 0 55 26 9 54 -44 27 -54 56 -30 82 19 22 74 23 81 2z m63 -14 c0 -7 8
-18 18 -25 16 -13 16 -13 0 -14 -15 0 -18 -9 -18 -45 0 -33 4 -45 15 -45 8 0
15 -4 15 -10 0 -16 -47 -11 -54 6 -3 9 -6 33 -6 54 0 21 -6 41 -12 44 -10 5
-10 7 0 12 6 3 12 12 12 20 0 8 7 14 15 14 8 0 15 -5 15 -11z m-940 -84 c0
-37 -4 -65 -10 -65 -6 0 -10 28 -10 65 0 37 4 65 10 65 6 0 10 -28 10 -65z
m64 54 c9 15 49 14 64 -1 14 -14 16 -118 2 -118 -5 0 -10 19 -10 43 0 51 -11
70 -36 65 -15 -2 -20 -14 -22 -56 -2 -37 -7 -52 -18 -52 -11 0 -14 14 -14 58
0 59 8 82 21 61 5 -8 8 -8 13 0z m348 -6 c22 -20 23 -70 1 -95 -20 -22 -76
-24 -93 -2 -19 22 -16 70 5 94 22 24 62 26 87 3z m58 -25 c6 -24 12 -47 14
-53 1 -5 11 14 20 43 10 28 21 52 26 52 4 0 14 -23 21 -51 l13 -51 16 45 c16
47 30 70 30 48 0 -32 -33 -121 -45 -121 -7 0 -18 21 -25 48 l-13 47 -14 -47
c-8 -27 -20 -48 -27 -48 -7 0 -20 27 -29 60 -20 70 -20 70 -7 70 5 0 14 -19
20 -42z m225 32 c4 -6 -5 -10 -19 -10 -34 0 -34 -23 0 -44 39 -26 30 -60 -18
-64 -22 -2 -38 1 -38 7 0 6 14 11 30 11 17 0 30 4 30 8 0 5 -13 18 -30 30 -34
26 -36 34 -14 56 17 18 50 21 59 6z m395 -10 c60 -60 -29 -150 -92 -93 -40 36
-8 113 47 113 14 0 34 -9 45 -20z m60 9 c0 -8 4 -8 15 1 8 6 19 9 25 5 8 -5 3
-11 -12 -19 -18 -9 -24 -21 -26 -59 -5 -71 -22 -57 -22 18 0 37 4 65 10 65 6
0 10 -5 10 -11z m154 -11 c27 -38 20 -48 -30 -48 -38 0 -45 -3 -42 -17 3 -13
13 -18 41 -18 46 0 43 -19 -5 -23 -41 -4 -61 16 -61 58 0 61 66 93 97 48z"/>
<path d="M1682 961 c-17 -11 -12 -56 7 -56 8 0 19 8 25 17 13 22 -11 52 -32
39z"/>
<path d="M1010 955 c0 -40 2 -45 23 -45 44 0 62 43 31 74 -8 9 -24 16 -35 16
-16 0 -19 -7 -19 -45z"/>
<path d="M1131 952 c-7 -14 -6 -24 4 -38 13 -18 15 -18 32 -1 13 13 15 21 7
34 -16 25 -31 27 -43 5z"/>
<path d="M1492 958 c-16 -16 -15 -33 4 -48 22 -19 54 12 38 37 -14 22 -27 26
-42 11z"/>
<path d="M1585 921 c-3 -5 -1 -12 5 -16 12 -7 30 2 30 16 0 12 -27 12 -35 0z"/>
<path d="M1931 960 c-7 -4 -11 -18 -9 -31 5 -35 42 -33 46 2 3 28 -16 43 -37
29z"/>
<path d="M675 861 c-36 -5 -40 -9 -43 -38 -3 -33 -3 -33 42 -33 l46 0 0 40 c0
22 -1 39 -2 39 -2 -1 -21 -5 -43 -8z"/>
<path d="M563 843 c-7 -2 -13 -16 -13 -29 0 -21 5 -24 35 -24 32 0 35 2 35 30
0 25 -4 30 -22 29 -13 0 -29 -3 -35 -6z"/>
<path d="M550 750 c0 -23 5 -30 19 -30 11 0 26 -3 35 -6 13 -5 16 1 16 30 0
34 -1 36 -35 36 -32 0 -35 -2 -35 -30z"/>
<path d="M630 746 c0 -30 4 -34 31 -40 56 -11 59 -9 59 34 l0 40 -45 0 c-44 0
-45 0 -45 -34z"/>
<path d="M1444 737 c-3 -9 -4 -28 -2 -44 2 -22 9 -29 30 -31 23 -3 29 2 34 24
4 15 2 34 -3 43 -13 21 -52 26 -59 8z"/>
<path d="M1591 736 c-7 -8 -11 -27 -9 -43 2 -23 8 -29 35 -31 28 -3 33 0 39
24 4 15 2 34 -3 43 -14 22 -47 25 -62 7z"/>
<path d="M2260 729 c-19 -34 2 -71 38 -67 24 3 27 7 27 43 0 36 -3 40 -27 43
-19 2 -30 -3 -38 -19z"/>
<path d="M2490 735 c-11 -13 -8 -15 20 -15 21 0 30 4 28 13 -7 18 -33 20 -48
2z"/>
</g>
</svg>
